<svg width="50" height="50" viewBox="0 0 50 50" fill="none" xmlns="http://www.w3.org/2000/svg">
<g clip-path="url(#clip0)">
<path d="M25.0001 50C38.8071 50 50.0002 38.8071 50.0002 24.9999C50.0002 11.1927 38.8071 0 25.0001 0C11.1931 0 0 11.1929 0 25.0001C0 38.8073 11.1929 50 25.0001 50ZM25.0001 3.99996C36.5791 3.99996 46 13.4209 46 24.9999C46 36.5789 36.5791 45.9999 25.0001 45.9999C13.4211 45.9999 4.00014 36.5789 4.00014 24.9999C4.00014 13.4209 13.42 3.99996 25.0001 3.99996Z" fill="white"/>
<path d="M20.3536 36.7911C21.7345 36.7911 22.8536 35.6722 22.8536 34.2911V15.2911C22.8536 13.9101 21.7347 12.791 20.3536 12.791C18.9726 12.791 17.8535 13.91 17.8535 15.2911V34.2911C17.8535 35.6722 18.9725 36.7911 20.3536 36.7911Z" fill="white"/>
<path d="M30.3534 36.7911C31.7343 36.7911 32.8535 35.6722 32.8535 34.2911V15.2911C32.8535 13.9101 31.7345 12.791 30.3534 12.791C28.9723 12.791 27.8535 13.9101 27.8535 15.2911V34.2911C27.8535 35.6722 28.9725 36.7911 30.3534 36.7911Z" fill="white"/>
</g>
<defs>
<clipPath id="clip0">
<rect width="50" height="50" fill="white"/>
</clipPath>
</defs>
</svg>
