<svg width="50" height="50" viewBox="0 0 50 50" fill="none" xmlns="http://www.w3.org/2000/svg">
<g clip-path="url(#clip0)">
<path d="M25.0001 50C38.8071 50 50.0002 38.8071 50.0002 24.9999C50.0002 11.1927 38.8071 0 25.0001 0C11.1931 0 0 11.1929 0 25.0001C0 38.8073 11.1929 50 25.0001 50ZM46 25.0001C46 36.5791 36.5791 46 25.0001 46C13.4211 46 4.00014 36.5791 4.00014 25.0001C4.00014 13.4211 13.4211 4.00014 25.0001 4.00014C36.5791 4.00014 46 13.4211 46 25.0001Z" fill="white"/>
<path d="M20.645 37.6964C21.1399 37.9014 21.644 38.0014 22.159 38.0014C23.2 38.0014 24.2151 37.5954 24.9801 36.8293L33.9761 27.8292C35.5382 26.2672 35.5361 23.7342 33.9741 22.1722L24.9731 13.1721C24.2081 12.4071 23.1842 12 22.143 12C21.628 12 21.139 12.1 20.644 12.305C19.15 12.9241 18.207 14.382 18.207 16V33.9999C18.2068 35.6184 19.15 37.0773 20.645 37.6964ZM22.207 16.2923V16.0003L31.2071 25.0004L22.207 34.0005V16.2923Z" fill="white"/>
</g>
<defs>
<clipPath id="clip0">
<rect width="50" height="50" fill="white"/>
</clipPath>
</defs>
</svg>
