<svg width="50" height="50" viewBox="0 0 50 50" fill="none" xmlns="http://www.w3.org/2000/svg">
<g clip-path="url(#clip0)">
<path d="M33.744 48.2889C33.1218 48.2889 32.5339 47.9146 32.2913 47.3008C31.9744 46.4988 32.3677 45.5918 33.1698 45.2749C33.222 45.2543 33.2735 45.2333 33.3255 45.2116C34.1208 44.8782 35.0357 45.253 35.369 46.0484C35.7023 46.8437 35.3276 47.7586 34.5322 48.0919C34.2605 48.2058 34.0599 48.2889 33.744 48.2889Z" fill="white"/>
<path d="M1.9913 15.2847C7.35661 2.56243 21.9942 -3.39321 34.719 1.97298C43.7804 5.79442 49.5381 14.4174 49.9735 23.8558C50.3629 32.2492 46.4411 40.5248 39.2929 45.4949C38.5851 45.9871 37.6119 45.8123 37.1194 45.1042C36.6271 44.3962 36.8021 43.4231 37.5101 42.9308C43.7626 38.5835 47.1943 31.3389 46.854 24C46.1679 9.12312 30.8993 -1.00166 16.7747 4.74337C4.64536 9.67684 -0.528089 24.1447 5.95023 35.6974C10.6061 44.0025 19.817 47.9933 28.5116 46.5739C29.3629 46.4347 30.1653 47.0123 30.3042 47.8634C30.4432 48.7144 29.8659 49.517 29.0148 49.656C9.52105 52.8384 -5.57984 33.237 1.9913 15.2847V15.2847Z" fill="white"/>
<path d="M37.6196 22.9061C37.0194 22.2872 36.0306 22.2719 35.4117 22.8725L35.0101 23.262C34.3399 19.4261 31.4811 16.1475 27.466 15.1464C22.0358 13.7925 16.5166 17.1088 15.1627 22.539C13.5684 28.9336 18.4217 35.1411 24.9974 35.1411C26.9217 35.1411 28.8327 34.5959 30.4746 33.5474C31.2014 33.0833 31.4144 32.1178 30.9501 31.391C30.4861 30.6641 29.5203 30.4515 28.7938 30.9154C23.4859 34.3053 16.6509 29.4788 18.1929 23.2944C19.1301 19.535 22.9514 17.2392 26.7104 18.1765C29.2976 18.8215 31.2071 20.8272 31.8276 23.2779L31.3747 22.811C30.7744 22.1921 29.7857 22.1771 29.1667 22.7775C28.5477 23.3779 28.5327 24.3664 29.1331 24.9854L32.2082 28.1554C32.8493 28.8162 33.9549 28.7952 34.5563 28.053L37.5862 25.1139C38.2051 24.5137 38.22 23.5251 37.6196 22.9061V22.9061Z" fill="white"/>
</g>
<defs>
<clipPath id="clip0">
<rect width="50" height="50" fill="white"/>
</clipPath>
</defs>
</svg>
